<svg version="1.1" xmlns="http://www.w3.org/2000/svg" xmlns:xlink="http://www.w3.org/1999/xlink" width="73.5" height="65.75424" viewBox="0,0,73.5,65.75424"><g transform="translate(-203.25,-147.12288)"><g data-paper-data="{&quot;isPaintingLayer&quot;:true}" fill="none" fill-rule="nonzero" stroke-linecap="round" stroke-linejoin="miter" stroke-miterlimit="10" stroke-dasharray="" stroke-dashoffset="0" style="mix-blend-mode: normal"><path d="M209.3856,154.19492c0,0 5.78191,11.62882 7.08656,19.04899c1.83376,10.42951 2.87954,37.63321 2.87954,37.63321" stroke="#eeeeee" stroke-width="4"/><path d="M258.61017,210.27119c0,0 1.04578,-27.2037 2.87954,-37.63321c1.30464,-7.42017 7.08656,-19.04899 7.08656,-19.04899" data-paper-data="{&quot;index&quot;:null}" stroke="#eeeeee" stroke-width="4"/><path d="M228.69492,152.94915l3.73729,10.58899l-14.32628,10.58898" stroke="#eeeeee" stroke-width="4"/><path d="M231.80932,162.29237l26.7839,28.65254l-13.08051,18.68644l-27.40678,-30.52119" stroke="#eeeeee" stroke-width="4"/><path d="M211.87712,159.80085l45.47034,45.47034" stroke="#eeeeee" stroke-width="4"/><path d="M248.62712,152.94915l-1.24576,9.9661l-28.65254,28.02966" stroke="#eeeeee" stroke-width="4"/><path d="M246.75847,162.91525l13.08051,12.45763l-29.27542,34.25847l-11.21186,-13.70339" stroke="#eeeeee" stroke-width="4"/><path d="M265.44492,158.4849l-45.47034,48.03205" stroke="#eeeeee" stroke-width="4"/><path d="M274,149.87288h-68" stroke="#d9652a" stroke-width="5.5"/></g></g></svg>